<?xml version="1.0" encoding="iso-8859-1"?>
<!-- Uploaded to: SVG Repo, www.svgrepo.com, Generator: SVG Repo Mixer Tools -->
<svg fill="#000000" height="800px" width="800px" version="1.1" id="Layer_1" xmlns="http://www.w3.org/2000/svg" xmlns:xlink="http://www.w3.org/1999/xlink" 
	 viewBox="0 0 472.615 472.615" xml:space="preserve">
<g>
	<g>
		<polygon points="472.615,374.154 472.615,315.047 0,315.047 0,374.154 147.692,374.154 147.692,423.385 108.308,423.385 
			108.308,443.077 364.308,443.077 364.308,423.385 324.923,423.385 324.923,374.154 		"/>
	</g>
</g>
<g>
	<g>
		<path d="M0,29.538v265.817h472.615V29.538H0z M423.385,236.282H49.231V98.436h374.154V236.282z"/>
	</g>
</g>
<g>
	<g>
		<polygon points="157.183,156.191 147.337,139.133 128,150.299 128,127.97 108.308,127.97 108.308,150.299 88.971,139.133 
			79.125,156.191 98.46,167.355 79.125,178.518 88.971,195.576 108.308,184.412 108.308,206.74 128,206.74 128,184.412 
			147.337,195.576 157.183,178.518 137.848,167.355 		"/>
	</g>
</g>
<g>
	<g>
		<polygon points="275.337,156.191 265.491,139.133 246.154,150.299 246.154,127.97 226.462,127.97 226.462,150.299 
			207.125,139.133 197.278,156.191 216.613,167.355 197.278,178.518 207.125,195.576 226.462,184.412 226.462,206.74 
			246.154,206.74 246.154,184.412 265.491,195.576 275.337,178.518 256.002,167.355 		"/>
	</g>
</g>
<g>
	<g>
		<polygon points="393.491,156.191 383.644,139.133 364.308,150.299 364.308,127.97 344.615,127.97 344.615,150.299 
			325.278,139.133 315.432,156.191 334.767,167.355 315.432,178.518 325.278,195.576 344.615,184.412 344.615,206.74 
			364.308,206.74 364.308,184.412 383.644,195.576 393.491,178.518 374.156,167.355 		"/>
	</g>
</g>
</svg>